<svg width="351" height="91" viewBox="0 0 351 91" fill="none" xmlns="http://www.w3.org/2000/svg">
<rect width="351" height="91" fill="#3E50B0"/>
<path d="M137.098 41.7812L140.75 52.0938L144.383 41.7812H148.23V56H145.291V52.1133L145.584 45.4043L141.746 56H139.734L135.906 45.4141L136.199 52.1133V56H133.27V41.7812H137.098ZM154.549 52.0059L156.502 45.4336H159.529L155.281 57.6406L155.047 58.1973C154.415 59.5775 153.374 60.2676 151.922 60.2676C151.512 60.2676 151.095 60.2057 150.672 60.082V57.9434L151.102 57.9531C151.635 57.9531 152.033 57.8717 152.293 57.709C152.56 57.5462 152.768 57.276 152.918 56.8984L153.25 56.0293L149.549 45.4336H152.586L154.549 52.0059ZM177.371 56H174.441L168.738 46.6445V56H165.809V41.7812H168.738L174.451 51.1562V41.7812H177.371V56ZM179.305 50.6191C179.305 49.571 179.507 48.6367 179.91 47.8164C180.314 46.9961 180.893 46.3613 181.648 45.9121C182.41 45.4629 183.292 45.2383 184.295 45.2383C185.721 45.2383 186.883 45.6745 187.781 46.5469C188.686 47.4193 189.191 48.6042 189.295 50.1016L189.314 50.8242C189.314 52.4453 188.862 53.7474 187.957 54.7305C187.052 55.707 185.838 56.1953 184.314 56.1953C182.791 56.1953 181.574 55.707 180.662 54.7305C179.757 53.7539 179.305 52.4258 179.305 50.7461V50.6191ZM182.127 50.8242C182.127 51.8268 182.316 52.5951 182.693 53.1289C183.071 53.6562 183.611 53.9199 184.314 53.9199C184.998 53.9199 185.532 53.6595 185.916 53.1387C186.3 52.6113 186.492 51.7715 186.492 50.6191C186.492 49.6361 186.3 48.8743 185.916 48.334C185.532 47.7936 184.992 47.5234 184.295 47.5234C183.605 47.5234 183.071 47.7936 182.693 48.334C182.316 48.8678 182.127 49.6979 182.127 50.8242ZM194.432 42.8359V45.4336H196.238V47.5039H194.432V52.7773C194.432 53.168 194.507 53.4479 194.656 53.6172C194.806 53.7865 195.092 53.8711 195.516 53.8711C195.828 53.8711 196.105 53.8483 196.346 53.8027V55.9414C195.792 56.1107 195.223 56.1953 194.637 56.1953C192.658 56.1953 191.648 55.196 191.609 53.1973V47.5039H190.066V45.4336H191.609V42.8359H194.432ZM202.674 56.1953C201.124 56.1953 199.861 55.7201 198.885 54.7695C197.915 53.819 197.43 52.5527 197.43 50.9707V50.6973C197.43 49.6361 197.635 48.6888 198.045 47.8555C198.455 47.0156 199.035 46.3711 199.783 45.9219C200.538 45.4661 201.398 45.2383 202.361 45.2383C203.807 45.2383 204.943 45.694 205.77 46.6055C206.603 47.5169 207.02 48.8092 207.02 50.4824V51.6348H200.291C200.382 52.3249 200.656 52.8783 201.111 53.2949C201.574 53.7116 202.156 53.9199 202.859 53.9199C203.947 53.9199 204.796 53.526 205.408 52.7383L206.795 54.291C206.372 54.89 205.799 55.3587 205.076 55.6973C204.354 56.0293 203.553 56.1953 202.674 56.1953ZM202.352 47.5234C201.792 47.5234 201.336 47.7122 200.984 48.0898C200.639 48.4674 200.418 49.0078 200.32 49.7109H204.246V49.4863C204.233 48.8613 204.064 48.3796 203.738 48.041C203.413 47.696 202.951 47.5234 202.352 47.5234ZM218.152 50.8145C218.152 52.5072 217.791 53.8288 217.068 54.7793C216.346 55.7233 215.337 56.1953 214.041 56.1953C212.895 56.1953 211.98 55.7559 211.297 54.877L211.17 56H208.631V41H211.453V46.3809C212.104 45.6191 212.96 45.2383 214.021 45.2383C215.311 45.2383 216.32 45.7135 217.049 46.6641C217.785 47.6081 218.152 48.9395 218.152 50.6582V50.8145ZM215.33 50.6094C215.33 49.5417 215.161 48.7637 214.822 48.2754C214.484 47.7806 213.979 47.5332 213.309 47.5332C212.41 47.5332 211.792 47.901 211.453 48.6367V52.8066C211.798 53.5488 212.423 53.9199 213.328 53.9199C214.24 53.9199 214.839 53.4707 215.125 52.5723C215.262 52.1426 215.33 51.4883 215.33 50.6094ZM219.461 50.6191C219.461 49.571 219.663 48.6367 220.066 47.8164C220.47 46.9961 221.049 46.3613 221.805 45.9121C222.566 45.4629 223.449 45.2383 224.451 45.2383C225.877 45.2383 227.039 45.6745 227.938 46.5469C228.842 47.4193 229.347 48.6042 229.451 50.1016L229.471 50.8242C229.471 52.4453 229.018 53.7474 228.113 54.7305C227.208 55.707 225.994 56.1953 224.471 56.1953C222.947 56.1953 221.73 55.707 220.818 54.7305C219.913 53.7539 219.461 52.4258 219.461 50.7461V50.6191ZM222.283 50.8242C222.283 51.8268 222.472 52.5951 222.85 53.1289C223.227 53.6562 223.768 53.9199 224.471 53.9199C225.154 53.9199 225.688 53.6595 226.072 53.1387C226.456 52.6113 226.648 51.7715 226.648 50.6191C226.648 49.6361 226.456 48.8743 226.072 48.334C225.688 47.7936 225.148 47.5234 224.451 47.5234C223.761 47.5234 223.227 47.7936 222.85 48.334C222.472 48.8678 222.283 49.6979 222.283 50.8242ZM230.77 50.6191C230.77 49.571 230.971 48.6367 231.375 47.8164C231.779 46.9961 232.358 46.3613 233.113 45.9121C233.875 45.4629 234.757 45.2383 235.76 45.2383C237.186 45.2383 238.348 45.6745 239.246 46.5469C240.151 47.4193 240.656 48.6042 240.76 50.1016L240.779 50.8242C240.779 52.4453 240.327 53.7474 239.422 54.7305C238.517 55.707 237.303 56.1953 235.779 56.1953C234.256 56.1953 233.038 55.707 232.127 54.7305C231.222 53.7539 230.77 52.4258 230.77 50.7461V50.6191ZM233.592 50.8242C233.592 51.8268 233.781 52.5951 234.158 53.1289C234.536 53.6562 235.076 53.9199 235.779 53.9199C236.463 53.9199 236.997 53.6595 237.381 53.1387C237.765 52.6113 237.957 51.7715 237.957 50.6191C237.957 49.6361 237.765 48.8743 237.381 48.334C236.997 47.7936 236.456 47.5234 235.76 47.5234C235.07 47.5234 234.536 47.7936 234.158 48.334C233.781 48.8678 233.592 49.6979 233.592 50.8242ZM246.355 51.7617L245.34 52.7773V56H242.518V41H245.34V49.3105L245.887 48.6074L248.592 45.4336H251.98L248.162 49.8379L252.312 56H249.07L246.355 51.7617Z" fill="white"/>
<path d="M87.5416 56.5195H96.921V53.8535H87.5416V56.5195ZM87.5416 40.5234V43.1895H115.68V40.5234H87.5416ZM87.5416 49.8545H106.3V47.1885H87.5416V49.8545Z" fill="white"/>
</svg>
