<svg width="25" height="25" viewBox="0 0 25 25" fill="none" xmlns="http://www.w3.org/2000/svg">
<path d="M12.5 6.14582C13.7084 6.14582 14.6875 7.12499 14.6875 8.33332C14.6875 9.54166 13.7084 10.5208 12.5 10.5208C11.2917 10.5208 10.3125 9.54166 10.3125 8.33332C10.3125 7.12499 11.2917 6.14582 12.5 6.14582ZM12.5 15.5208C15.5938 15.5208 18.8542 17.0417 18.8542 17.7083V18.8542H6.14585V17.7083C6.14585 17.0417 9.40627 15.5208 12.5 15.5208ZM12.5 4.16666C10.1979 4.16666 8.33335 6.03124 8.33335 8.33332C8.33335 10.6354 10.1979 12.5 12.5 12.5C14.8021 12.5 16.6667 10.6354 16.6667 8.33332C16.6667 6.03124 14.8021 4.16666 12.5 4.16666ZM12.5 13.5417C9.71877 13.5417 4.16669 14.9375 4.16669 17.7083V20.8333H20.8334V17.7083C20.8334 14.9375 15.2813 13.5417 12.5 13.5417Z" fill="white"/>
</svg>
