<svg width="25" height="25" viewBox="0 0 25 25" fill="none" xmlns="http://www.w3.org/2000/svg">
<path d="M15.625 12.5C17.9271 12.5 19.7917 10.6354 19.7917 8.33332C19.7917 6.03124 17.9271 4.16666 15.625 4.16666C13.3229 4.16666 11.4584 6.03124 11.4584 8.33332C11.4584 10.6354 13.3229 12.5 15.625 12.5ZM15.625 6.24999C16.7709 6.24999 17.7084 7.18749 17.7084 8.33332C17.7084 9.47916 16.7709 10.4167 15.625 10.4167C14.4792 10.4167 13.5417 9.47916 13.5417 8.33332C13.5417 7.18749 14.4792 6.24999 15.625 6.24999ZM15.625 14.5833C12.8438 14.5833 7.29169 15.9792 7.29169 18.75V20.8333H23.9584V18.75C23.9584 15.9792 18.4063 14.5833 15.625 14.5833ZM9.37502 18.75C9.60419 18 12.8229 16.6667 15.625 16.6667C18.4375 16.6667 21.6667 18.0104 21.875 18.75H9.37502ZM6.25002 15.625V12.5H9.37502V10.4167H6.25002V7.29166H4.16669V10.4167H1.04169V12.5H4.16669V15.625H6.25002Z" fill="white"/>
</svg>
